#!OML:ASF E:/inclinewalkrobotboard/Project1/Captureday1/Session1/subject1.ASF
:FULLY-SPECIFIED
:DEGREES
251
root 0 0 0 2.336852438752882 -9.36975322981162 -5.415944701479171
lowerback 8.13072692036065 2.8838601130020707 3.337881891151601
upperback 1.6872995631116452 3.964828406275337 -1.0630330348029229
thorax -2.818659599600365 2.0029647740841967 -3.301161809565636
lowerneck -7.058262436789282 -2.7899601366017346 -5.575880877580795
upperneck 2.062759068514522 -3.247407983657828 5.355888919795588
head 2.3263084754950927 -1.4354253298178887 2.4899185956015732
rclavicle -1.1518643636253457E-14 -1.0380475910372603E-16
rhumerus 3.9663037602886035 -8.863965515214437 -67.33814051436462
rradius 18.52578310604055
rwrist 56.4442670724646
rhand -6.879373851882114 20.823455610534012
rfingers 7.125019999999925
rthumb 18.978940547763415 -8.846151248026821
lclavicle -1.1870910153409704E-14 2.9938046086834935E-15
lhumerus -31.445841004937627 0.5835112062941015 81.63362725095412
lradius 28.730827835311707
lwrist -38.36424244914383
lhand -6.549905887246677 15.657122800045798
lfingers 7.046984590181372
lthumb 19.00783914047297 38.47018231941806
rfemur 7.865680697330202 8.492680840704583 37.195396399110685
rtibia 25.914930350942367
rfoot -20.65545681157301 -4.973650783325173
rtoes 6.3767693567107475
lfemur -22.831577529033858 3.432182002934101 -11.594134094455388
ltibia 70.72058234815509
lfoot 4.775191202180769 -12.604730461297304
ltoes -12.161138670611244
252
root 0 0 0 4.530439161548898 1.0996551410434776 -6.053982432951224
lowerback 9.776335442847683 3.0695538580193684 2.8575125236630647
upperback 2.1939426116883034 4.130011666135375 -1.243141941093417
thorax -3.203243368386234 2.092792446932678 -3.2407039119965395
lowerneck -6.990177402525067 -3.4526254968195818 -5.660029074263315
upperneck 2.6307585913259395 -4.045429216654031 5.121010823946774
head 2.618013159110257 -1.8193201748981593 2.39295629248496
rclavicle -1.1379111127606024E-14 -9.552703703341894E-17
rhumerus 3.7824132006144042 -8.873612183708774 -67.52630806284556
rradius 18.572509639665924
rwrist 56.507763361818235
rhand -6.817966187637593 20.93676853435772
rfingers 7.125019999999924
rthumb 19.04017186547378 -8.729479801566338
lclavicle -1.1245091252700629E-14 3.3086988428773983E-15
lhumerus -31.302555787193313 0.8442007484627432 81.54471958152628
lradius 28.796292014129165
lwrist -38.27162324981532
lhand -7.009554711684408 15.676866204802929
lfingers 7.049410040594416
lthumb 18.575773153299146 38.90971618438138
rfemur 6.729532933195973 8.287046217521851 37.04362610149868
rtibia 26.181990949179546
rfoot -20.065191979678005 -4.985233722014729
rtoes 6.982873372272573
lfemur -24.207380930228545 3.462320096737426 -11.476102959471396
ltibia 70.80883307927922
lfoot 4.544464777979629 -12.11831344667737
ltoes -11.185275827715703
253
root 0 0 0 6.37935384635041 9.528317025404927 -6.651260221002293
lowerback 10.691362209525668 3.1570308925473665 2.4196714236648713
upperback 2.4036528376710677 4.188212581186327 -1.4348123930728476
thorax -3.484485787801079 2.130284709466525 -3.199090139279494
lowerneck -7.031661636427441 -3.911368061657589 -5.804838202344838
upperneck 3.1605818896299507 -4.592609413499403 4.897815790095582
head 2.8908397678406397 -2.086681576168985 2.3229459654437696
rclavicle -1.1207239890236302E-14 -6.491366121352611E-17
rhumerus 3.8829923025995976 -9.159563762114738 -67.57360345041712
rradius 18.580243721218707
rwrist 56.631795695157166
rhand -6.798018528168749 21.084312473516192
rfingers 7.125019999999922
rthumb 19.062070246803398 -8.581314296938427
lclavicle -1.053218686620169E-14 3.5677248466235596E-15
lhumerus -30.86195912804218 1.340167939711442 81.2227704313973
lradius 28.774333581712035
lwrist -38.22146717573416
lhand -7.548583832946487 15.641986379795467
lfingers 7.051771405698272
lthumb 18.067167345465037 39.54875173273693
rfemur 5.336319866912561 8.075325538070436 36.86590505461164
rtibia 26.401233913178785
rfoot -19.555352480189246 -5.074086742023793
rtoes 7.756023947629471
lfemur -25.079294194172913 3.4455267289745946 -11.505307489673656
ltibia 70.54760545537847
lfoot 4.315933026582018 -11.743903394922686
ltoes -10.376131466552355
254
root 0 0 0 7.465022177392328 13.9685936166143 -7.230530316813846
lowerback 11.006883257216485 3.164244517991831 2.13618779904322
upperback 2.4094845440648642 4.167871278875125 -1.5302694584835304
thorax -3.645818529111144 2.1256715972455695 -3.136918708774209
lowerneck -7.178734990168007 -4.16827242340669 -6.002360066961074
upperneck 3.368271117453803 -4.891927875514891 4.834759848182495
head 3.0391446328928584 -2.2375698374090227 2.321785303072323
rclavicle -1.1077807976874068E-14 -2.941989331642051E-17
rhumerus 4.2440906102879135 -9.630077089488841 -67.46387347587715
rradius 18.556131704599316
rwrist 56.772038246948895
rhand -6.8321221909339425 21.212475058324564
rfingers 7.125019999999921
rthumb 19.03137209990974 -8.455919273170196
lclavicle -1.0065202113074471E-14 3.725471438855092E-15
lhumerus -30.302771364556662 1.907586909685648 80.8023191154503
lradius 28.936880323454467
lwrist -38.11293407280567
lhand -7.97317263885713 15.586967524140107
lfingers 7.053833669381404
lthumb 17.666780421758332 40.357401651438146
rfemur 3.87060631889716 7.918276699387946 36.68815126865442
rtibia 26.471413537507104
rfoot -19.260939511973937 -5.259709739245049
rtoes 8.675703510462817
lfemur -25.49472109977741 3.3858626046750304 -11.627044387343254
ltibia 70.04813545705794
lfoot 4.127940096334887 -11.464337625368515
ltoes -9.70471621664398
255
root 0 0 0 8.090242395620985 16.250281483102317 -7.822945245409498
lowerback 11.06383848835021 3.1329290435739 1.9419385382808332
upperback 2.328972816667445 4.109202581104531 -1.5667034850468489
thorax -3.7541987477856855 2.1000083612209774 -3.0613351876276416
lowerneck -7.385538439724645 -4.330449847926065 -6.2216192115369156
upperneck 3.3226723379563907 -5.073852025858505 4.866653226413881
head 3.0966970597838186 -2.332854050995859 2.3574233796054678
rclavicle -1.1011674520325661E-14 -5.345088692956802E-18
rhumerus 4.690674145196138 -10.124211885964327 -67.26097237889095
rradius 18.52532792894735
rwrist 56.88709984073817
rhand -6.89853122473964 21.29868914382233
rfingers 7.12501999999992
rthumb 18.968762737368664 -8.374488229751847
lclavicle -9.83682168303336E-15 3.825561919137003E-15
lhumerus -29.75719966407918 2.4666777159033266 80.36529103649704
lradius 29.22914953350115
lwrist -37.993341016029476
lhand -8.220084541537677 15.518596299130188
lfingers 7.055415833212803
lthumb 17.434839582545457 41.2668823944463
rfemur 2.714977630323709 7.854668260357999 36.56480990916964
rtibia 26.340371251276405
rfoot -19.21457363773097 -5.477131234059135
rtoes 9.50379015946067
lfemur -25.791249720723712 3.3138571637342746 -11.716225645814342
ltibia 69.50447281101614
lfoot 3.918589830566569 -11.153346776312716
ltoes -9.113252745745925
